<?xml version="1.0" encoding="UTF-8"?><!DOCTYPE svg PUBLIC "-//W3C//DTD SVG 1.0//EN" "http://www.w3.org/TR/2001/REC-SVG-20010904/DTD/svg10.dtd" []><svg xmlns="http://www.w3.org/2000/svg" xmlns:xlink="http://www.w3.org/1999/xlink" height="165" viewBox="0 0 234.667 165.333" width="235"><g><g><path d="m 1723.22,1046.37 c -20.24,76.22 -79.87,136.24 -155.6,156.61 C 1430.37,1240 880,1240 880,1240 c 0,0 -550.367,0 -687.621,-37.02 C 116.656,1182.61 57.0156,1122.59 36.7773,1046.37 0,908.227 0,620 0,620 0,620 0,331.777 36.7773,193.621 57.0156,117.41 116.656,57.3906 192.379,37.0117 329.633,0 880,0 880,0 c 0,0 550.37,0 687.62,37.0117 75.73,20.3789 135.36,80.3983 155.6,156.6093 C 1760,331.777 1760,620 1760,620 c 0,0 0,288.227 -36.78,426.37" fill="#252323" transform="matrix(.13333 0 0 -.13333 0 165.333)"/><path d="m 700,358.313 460,261.675 -460,261.7 z" fill="#fff" transform="matrix(.13333 0 0 -.13333 0 165.333)"/></g></g></svg>